<svg xmlns="http://www.w3.org/2000/svg" viewBox="0 0 60 60"><g fill="#000" fill-rule="evenodd"><path d="M35 9.012h5.586L35 3.426v5.586zm8 2h-9c-.552 0-1-.448-1-1v-9c0-.404.244-.769.617-.924.374-.155.803-.07 1.09.217l9 9c.286.286.372.716.217 1.09-.155.373-.52.617-.924.617zM33.6855 35.596l3.218 2.396 18.713-24.807-3.425-2.741-18.506 25.152zm3.417 4.792c-.208 0-.417-.064-.597-.198l-4.812-3.584c-.441-.328-.534-.951-.208-1.395l19.712-26.792c.162-.219.405-.363.675-.399.269-.033.543.041.756.211l4.996 4c.423.339.499.951.174 1.383L37.9015 39.99c-.196.261-.496.398-.799.398z"/><path d="M54.3301 9.5852l1.444 1.14 1.7-2.323c.075-.101.053-.245-.048-.32l-1.052-.79c-.101-.075-.244-.056-.321.044l-1.723 2.249zm1.638 3.568c-.223 0-.442-.075-.619-.215l-3.032-2.395c-.429-.338-.507-.958-.174-1.393l2.323-3.03c.739-.967 2.134-1.159 3.108-.428l1.053.79c.973.73 1.179 2.122.461 3.102l-2.313 3.16c-.16.218-.403.363-.672.4-.045.006-.09.009-.135.009z"/><path d="M41.0288 18.012c-.208 0-.418-.064-.597-.199-.443-.33-.534-.957-.203-1.399l5.973-8c.242-.324.652-.47 1.044-.372l3.997 1c.536.134.861.677.727 1.213-.133.535-.676.862-1.212.727l-3.352-.838-5.575 7.466c-.196.263-.497.402-.802.402M31.4863 41.4392l.448.333 3.459-2.411-2.587-1.926-1.32 4.004zm.429 2.566c-.211 0-.421-.066-.597-.198l-1.604-1.194c-.346-.257-.488-.707-.353-1.115l1.98-6.007c.101-.305.342-.544.648-.641.306-.098.641-.04.899.152l4.812 3.584c.258.192.408.496.403.817-.006.322-.165.621-.429.805l-5.188 3.617c-.171.12-.372.18-.571.18z"/><path d="M29.999 45.012c-.197 0-.395-.058-.569-.178-.454-.315-.566-.938-.252-1.392l1.113-1.604c.314-.455.937-.568 1.392-.252.454.315.566.938.252 1.392l-1.113 1.604c-.195.28-.506.43-.823.43M33.7173 35.5633l3.114 2.112 8.442-11.053-3.206-2.27-8.35 11.211zm3.334 4.47c-.193 0-.389-.056-.561-.173l-4.761-3.229c-.225-.153-.379-.392-.424-.661-.046-.269.021-.545.184-.763l9.558-12.832c.323-.436.935-.533 1.379-.219l4.849 3.432c.222.157.37.397.411.665.041.269-.029.542-.194.758l-9.645 12.629c-.196.256-.494.393-.796.393z"/><path d="M39.4238 37.2469c-.213 0-.428-.067-.609-.208l-4.745-3.65c-.437-.337-.519-.965-.182-1.403.337-.437.966-.519 1.402-.182l4.744 3.651c.438.336.52.964.183 1.402-.197.256-.494.39-.793.39M41.8809 33.9724c-.208 0-.417-.064-.596-.198l-4.812-3.585c-.444-.329-.535-.956-.205-1.399.33-.443.957-.535 1.399-.204l4.812 3.584c.444.33.535.956.205 1.399-.197.264-.498.403-.803.403M44.2896 30.6619c-.202 0-.407-.061-.583-.188l-4.832-3.482c-.448-.323-.55-.948-.227-1.396.323-.449.948-.551 1.396-.227l4.831 3.481c.449.324.55.949.227 1.396-.195.272-.501.416-.812.416M21 21.012H9c-.552 0-1-.448-1-1s.448-1 1-1h12c.552 0 1 .448 1 1s-.448 1-1 1M21 33.012H9c-.552 0-1-.448-1-1s.448-1 1-1h12c.552 0 1 .448 1 1s-.448 1-1 1M21 45.012H9c-.552 0-1-.448-1-1s.448-1 1-1h12c.552 0 1 .448 1 1s-.448 1-1 1M29 22.012c-.265 0-.519-.105-.707-.293l-2-2c-.391-.391-.391-1.023 0-1.414s1.023-.391 1.414 0l1.226 1.226 4.299-5.159c.353-.424.983-.482 1.408-.128.424.353.482.984.128 1.408l-5 6c-.18.216-.442.346-.723.359-.015.001-.03.001-.045.001M29 34.012c-.265 0-.519-.105-.707-.293l-2-2c-.391-.391-.391-1.023 0-1.414s1.023-.391 1.414 0l1.226 1.226 4.299-5.159c.353-.424.983-.482 1.408-.128.424.353.482.984.128 1.408l-5 6c-.18.216-.442.346-.723.359-.015.001-.03.001-.045.001"/><path d="M37.103 39.388h.01-.01zM2 58.012h40V34.557l-4.099 5.433c-.063.085-.14.158-.226.218l-5.188 3.617c-.354.246-.825.239-1.169-.018l-1.604-1.194c-.345-.257-.487-.706-.353-1.115l1.98-6.007c.033-.1.082-.195.144-.28L42 20.921V10.426l-8.415-8.414H2v56zm41 2H1c-.552 0-1-.448-1-1v-58c0-.552.448-1 1-1h32.999c.266 0 .52.105.708.293l9 9c.188.187.293.442.293.707v11.237c0 .213-.068.421-.194.593L33.191 36.268l-1.705 5.171.448.334 4.466-3.114 5.802-7.69c.258-.344.71-.484 1.115-.347.408.137.683.519.683.949v27.441c0 .552-.448 1-1 1z"/></g></svg>
